# Blender v2.76 (sub 0) OBJ File: 'CornerIn.blend'
# www.blender.org
mtllib CornerIn.mtl
o Cube_Cube.001
v -1.000000 0.000000 1.000000
v -1.000000 2.000000 1.000000
v -1.000000 0.000000 -1.000000
v 1.000000 0.000000 1.000000
v 1.000000 2.000000 1.000000
v 1.000000 0.000000 -1.000000
v 1.000000 2.000000 -1.000000
vn 1.000000 0.000000 0.000000
vn 0.000000 0.000000 1.000000
vn 0.000000 -1.000000 0.000000
vn -1.000000 0.000000 0.000000
vn 0.000000 0.000000 -1.000000
vn -0.577400 0.577400 -0.577400
vn 0.000000 1.000000 0.000000
usemtl Material
s off
f 5//1 4//1 6//1
f 2//2 1//2 4//2
f 3//3 6//3 4//3
f 2//4 3//4 1//4
f 3//5 7//5 6//5
f 7//6 3//6 2//6
f 7//1 5//1 6//1
f 5//2 2//2 4//2
f 1//3 3//3 4//3
f 5//7 7//7 2//7
